<?xml version="1.0" encoding="utf-8"?>
<!DOCTYPE svg PUBLIC "-//W3C//DTD SVG 1.1//EN" "http://www.w3.org/Graphics/SVG/1.1/DTD/svg11.dtd" [
	<!ENTITY ns_extend "http://ns.adobe.com/Extensibility/1.0/">
	<!ENTITY ns_ai "http://ns.adobe.com/AdobeIllustrator/10.0/">
	<!ENTITY ns_graphs "http://ns.adobe.com/Graphs/1.0/">
	<!ENTITY ns_vars "http://ns.adobe.com/Variables/1.0/">
	<!ENTITY ns_imrep "http://ns.adobe.com/ImageReplacement/1.0/">
	<!ENTITY ns_sfw "http://ns.adobe.com/SaveForWeb/1.0/">
	<!ENTITY ns_custom "http://ns.adobe.com/GenericCustomNamespace/1.0/">
	<!ENTITY ns_adobe_xpath "http://ns.adobe.com/XPath/1.0/">
]>
<svg version="1.1" id="Layer_1" xmlns:x="&ns_extend;" xmlns:i="&ns_ai;" xmlns:graph="&ns_graphs;"
	 xmlns="http://www.w3.org/2000/svg" xmlns:xlink="http://www.w3.org/1999/xlink" x="0px" y="0px" width="100px" height="50px"
	 viewBox="0 0 100 50" enable-background="new 0 0 100 50" xml:space="preserve">
<metadata>
	<sfw  xmlns="&ns_sfw;">
		<slices></slices>
		<sliceSourceBounds  height="49.79" width="96.497" x="151.517" y="175.492" bottomLeftOrigin="true"></sliceSourceBounds>
	</sfw>
</metadata>
<g>
	<path fill="#FFFFFF" d="M2.756,41.963c-0.216,0.195-0.335,0.464-0.335,0.758c0,0.302,0.132,0.584,0.312,0.73
		c0.198,0.192,0.458,0.291,0.772,0.291h0.053v4.222H3.506c-0.379,0-0.621,0.149-0.741,0.261c-0.222,0.195-0.344,0.465-0.344,0.762
		c0,0.298,0.122,0.568,0.346,0.766c0.195,0.169,0.443,0.256,0.739,0.256h2.099v-8.315H3.506C3.135,41.692,2.895,41.839,2.756,41.963
		z"/>
	<path fill="#FFFFFF" d="M91.195,43.742c0.375,0,0.616-0.147,0.766-0.282c0.204-0.193,0.317-0.456,0.317-0.739
		c0-0.271-0.104-0.526-0.356-0.779c-0.135-0.113-0.371-0.248-0.727-0.248h-2.099v8.314h2.099c0.282,0,0.524-0.08,0.783-0.295
		c0.193-0.193,0.3-0.451,0.3-0.727c0-0.28-0.109-0.541-0.365-0.785c-0.194-0.157-0.436-0.237-0.718-0.237h-0.057v-4.222H91.195z"/>
	<path fill="#FFFFFF" d="M53.846,6.958c0.581,0,1.111-0.11,1.586-0.334c0.5-0.223,0.891-0.529,1.197-0.947l-0.5-0.361
		c-0.613,0.696-1.365,1.058-2.258,1.058c-0.807,0-1.501-0.279-2.031-0.808c-0.527-0.529-0.805-1.169-0.805-1.95
		c0-0.527,0.109-0.974,0.357-1.392c0.254-0.418,0.586-0.751,1.032-1.001c0.417-0.251,0.892-0.363,1.421-0.363
		c0.473,0,0.889,0.084,1.279,0.28c0.389,0.194,0.723,0.472,1.003,0.833l0.5-0.39c-0.306-0.443-0.696-0.779-1.168-1.002
		c-0.502-0.25-1.032-0.362-1.644-0.362c-0.975,0-1.809,0.335-2.479,0.975c-0.64,0.64-0.973,1.421-0.973,2.367
		c0,0.89,0.279,1.642,0.808,2.282C51.84,6.595,52.702,6.958,53.846,6.958z"/>
	<path fill="#FFFFFF" d="M61.027,6.958L61.027,6.958c0.945,0.001,1.752-0.306,2.392-0.973c0.668-0.642,1.005-1.449,1.005-2.396
		c0-0.947-0.337-1.755-1.005-2.395c-0.64-0.64-1.446-0.975-2.392-0.975h-0.03c-0.613,0-1.169,0.139-1.667,0.446
		c-0.53,0.306-0.948,0.725-1.227,1.252c-0.308,0.502-0.445,1.086-0.445,1.698c0,0.92,0.307,1.727,0.972,2.369
		C59.271,6.651,60.08,6.958,61.027,6.958z M58.66,2.223c0.253-0.418,0.585-0.751,1.003-1.001c0.446-0.251,0.889-0.363,1.364-0.363
		c0.474,0,0.945,0.112,1.361,0.363c0.418,0.25,0.756,0.583,1.006,0.973c0.222,0.419,0.361,0.893,0.361,1.393
		c0,0.501-0.14,0.975-0.361,1.393c-0.25,0.418-0.56,0.751-1.006,1.003c-0.416,0.221-0.861,0.361-1.361,0.361
		c-0.754,0-1.393-0.28-1.922-0.78c-0.529-0.529-0.777-1.169-0.777-1.95C58.328,3.114,58.438,2.641,58.66,2.223z"/>
	<polygon fill="#FFFFFF" points="66.371,1.945 70.605,6.817 70.744,6.817 70.744,0.387 70.104,0.387 70.104,5.287 65.841,0.387 
		65.705,0.387 65.705,6.817 66.371,6.817 	"/>
	<path fill="#FFFFFF" d="M75.502,6.957c0.586,0,1.116-0.11,1.589-0.334c0.472-0.223,0.888-0.529,1.198-0.947l-0.504-0.361
		c-0.609,0.696-1.361,1.058-2.256,1.058c-0.805,0-1.504-0.279-2.029-0.808c-0.531-0.529-0.811-1.169-0.811-1.95
		c0-0.527,0.115-0.973,0.365-1.391s0.584-0.751,1.028-1.001c0.42-0.251,0.894-0.363,1.419-0.363c0.475,0,0.893,0.084,1.281,0.28
		c0.393,0.194,0.724,0.472,1.002,0.833l0.504-0.39c-0.311-0.443-0.697-0.779-1.17-1.003c-0.501-0.25-1.031-0.362-1.643-0.362
		c-0.974,0-1.812,0.335-2.478,0.975c-0.642,0.64-0.974,1.421-0.974,2.367c0,0.89,0.279,1.642,0.807,2.282
		C73.471,6.594,74.361,6.957,75.502,6.957z"/>
	<polygon fill="#FFFFFF" points="83.243,6.177 80.236,6.177 80.236,3.644 83.243,3.644 83.243,3.031 80.236,3.031 80.236,1.028 
		83.271,1.028 83.271,0.387 79.596,0.387 79.596,6.817 83.243,6.817 	"/>
	<path fill="#FFFFFF" d="M85.023,3.813h0.447c0.361,0,0.639,0,0.889,0V3.812c0.334-0.03,0.584-0.056,0.754-0.112
		c0.39-0.085,0.695-0.28,0.947-0.557c0.224-0.278,0.332-0.613,0.332-1.057c0-0.419-0.108-0.781-0.363-1.058
		c-0.221-0.28-0.527-0.474-0.891-0.559c-0.164-0.026-0.416-0.054-0.779-0.082c-0.194,0-0.441,0-0.695,0h-1.275h-0.002v6.431h0.637
		V3.813z M85.023,1h1.142c0.054,0,0.137,0,0.194,0c0.334,0.028,0.584,0.055,0.724,0.11c0.2,0.084,0.362,0.224,0.478,0.391
		c0.107,0.166,0.164,0.389,0.164,0.584c0,0.222-0.057,0.418-0.164,0.611c-0.115,0.168-0.277,0.307-0.502,0.392
		c-0.143,0.054-0.392,0.081-0.699,0.11v0.001c-0.08,0-0.164,0-0.25,0h-1.086V1z"/>
	<polygon fill="#FFFFFF" points="90.482,6.817 91.122,6.817 91.122,1 92.57,1 92.57,0.387 89.032,0.387 89.032,1 90.482,1 	"/>
	<path fill="#FFFFFF" d="M8.198,22.284c0-2.076,0.461-3.727,1.356-4.922c0.928-1.194,2.225-1.792,3.929-1.792
		c1.559,0,2.801,0.626,3.726,1.878c0.549,0.768,0.895,1.536,1.04,2.304c0.146,0.739,0.231,1.564,0.231,2.448v12.345h6.095V20.691
		c0-2.76-0.579-4.895-1.734-6.459c-1.155-1.564-2.57-2.703-4.273-3.414c-1.82-0.711-3.726-0.824-5.719-0.342
		c-1.993,0.456-3.553,1.594-4.651,3.386V6.806c0-0.852-0.288-1.564-0.896-2.161C6.697,4.047,5.975,3.764,5.107,3.764h-3.09v30.782
		h6.181V22.284z"/>
	<path fill="#FFFFFF" d="M37.284,19.609c-0.056,0-0.144,0-0.202,0.028c-0.461,0.056-0.867,0.113-1.243,0.199
		c-0.431,0.085-0.78,0.113-1.096,0.113c-2.283,0.37-4.189,1.082-5.662,2.162c-1.502,1.082-2.224,2.875-2.224,5.379
		c0,2.646,0.808,4.58,2.425,5.746c1.647,1.168,3.552,1.734,5.749,1.734c0.634,0,1.298,0,2.05-0.057
		c0.549-0.057,1.126-0.085,1.732-0.17c1.417-0.145,2.746-0.541,4.043-1.196c1.186-0.598,2.255-1.563,3.119-2.901
		c0.896-1.365,1.33-3.186,1.33-5.576v-8.165c0-2.134-0.895-3.812-2.628-5.006c-1.704-1.139-4.216-1.708-7.596-1.708h-0.057
		c-3.035,0-5.373,0.683-6.99,2.077c-1.473,1.195-2.311,2.702-2.542,4.551h6.094c0.288-0.653,0.779-1.11,1.445-1.338
		c0.605-0.228,1.269-0.339,2.05-0.339c0.058-0.029,0.146-0.029,0.202-0.029c0.809,0,1.676,0.141,2.6,0.427
		c0.953,0.255,1.415,0.825,1.415,1.734C41.298,18.471,39.971,19.239,37.284,19.609z M41.384,22.569v2.247h-0.001
		c0,1.65-0.491,2.958-1.443,3.926c-0.751,0.711-1.703,1.166-2.859,1.337c-0.376,0.028-0.752,0.058-1.155,0.058
		c-1.01,0-1.82-0.229-2.34-0.712c-0.549-0.54-0.838-1.224-0.838-2.104c0-0.655,0.231-1.338,0.636-1.992
		c0.491-0.484,1.271-0.853,2.37-1.166c0,0,0.432-0.085,1.328-0.285l0.78-0.141C39.362,23.366,40.549,22.967,41.384,22.569z"/>
	<path fill="#FFFFFF" d="M67.637,33.01c2.256-1.31,3.385-4.097,3.385-8.308V10.733h-3.18c-0.924,0-1.674,0.313-2.252,0.911
		c-0.578,0.596-0.867,1.308-0.867,2.133v12.177c0,1.451-0.433,2.476-1.299,3.128c-0.898,0.656-1.88,0.968-2.979,0.968
		c-1.068,0-2.049-0.312-2.887-0.968c-0.865-0.652-1.301-1.677-1.301-3.128V10.733h-6.354v13.969c0,4.125,1.098,6.8,3.237,8.137
		c2.135,1.308,4.536,2.021,7.135,2.134C62.961,34.973,65.387,34.32,67.637,33.01z"/>
	<path fill="#FFFFFF" d="M92.908,22.653c-1.21-1.024-3.35-1.905-6.441-2.703c-0.258,0-0.517-0.028-0.777-0.084
		c-0.26-0.058-0.576-0.142-0.953-0.256C81.588,18.955,80,18.16,80,17.192c0-0.712,0.287-1.253,0.837-1.622
		c0.608-0.343,1.504-0.542,2.714-0.542c1.27,0,2.284,0.285,3.008,0.825c0.23,0.229,0.49,0.456,0.721,0.712
		c0.607,0.996,1.5,1.508,2.631,1.508h3.93c-0.115-2.389-1.072-4.324-2.832-5.803c-1.88-1.394-4.391-2.077-7.537-2.077
		c-2.919,0-5.289,0.682-7.107,2.077c-1.764,1.479-2.627,3.357-2.627,5.632c0,1.792,0.604,3.216,1.82,4.298
		c1.094,1.08,3.233,2.018,6.438,2.787c0.549,0.171,1.388,0.341,2.481,0.541c2.543,0.541,3.813,1.339,3.813,2.42
		c0,0.711-0.376,1.251-1.097,1.65c-0.782,0.426-1.731,0.625-2.83,0.625c-1.504,0-2.715-0.285-3.639-0.883
		c-0.84-0.568-1.302-1.451-1.357-2.645h-6.182h-0.002v0.254c0,2.588,0.893,4.609,2.656,5.976c1.676,1.365,4.245,2.048,7.709,2.048
		c3.641,0,6.359-0.654,8.174-1.964c1.935-1.422,2.918-3.472,2.918-6.06C94.641,25.157,94.062,23.734,92.908,22.653z"/>
	<path fill="#FFFFFF" d="M9.591,23.96c-0.001,0.643,0.524,1.158,1.177,1.158c0.652,0,1.177-0.516,1.177-1.158
		c0-0.643-0.525-1.159-1.177-1.159S9.591,23.317,9.591,23.96z"/>
	<path fill="#FFFFFF" d="M98.248,32.215c-0.18-0.306-0.416-0.546-0.717-0.722c-0.305-0.173-0.629-0.261-0.979-0.261
		c-0.351,0-0.677,0.088-0.98,0.263c-0.305,0.177-0.54,0.417-0.717,0.722c-0.174,0.307-0.265,0.633-0.265,0.983
		c0,0.345,0.091,0.67,0.265,0.974c0.177,0.303,0.416,0.541,0.722,0.719c0.304,0.174,0.629,0.26,0.978,0.26
		c0.348,0,0.674-0.086,0.978-0.262c0.305-0.178,0.541-0.416,0.719-0.719c0.176-0.301,0.263-0.629,0.263-0.98
		C98.514,32.848,98.423,32.521,98.248,32.215z M98.016,34.042c-0.15,0.26-0.356,0.466-0.617,0.616
		c-0.262,0.152-0.543,0.23-0.84,0.23c-0.299,0-0.58-0.076-0.846-0.229c-0.262-0.15-0.471-0.354-0.619-0.616
		c-0.152-0.264-0.226-0.544-0.226-0.844c0-0.305,0.073-0.586,0.226-0.852c0.148-0.264,0.355-0.472,0.619-0.623
		c0.266-0.151,0.547-0.227,0.846-0.227c0.301,0,0.578,0.076,0.84,0.227c0.26,0.151,0.465,0.359,0.613,0.623
		c0.152,0.266,0.231,0.545,0.231,0.846C98.243,33.497,98.164,33.779,98.016,34.042z"/>
	<path fill="#FFFFFF" d="M97.453,33.948v-0.255c0-0.158-0.018-0.273-0.051-0.34c-0.035-0.065-0.104-0.121-0.205-0.172
		c0.113-0.072,0.185-0.141,0.217-0.201c0.043-0.084,0.066-0.185,0.066-0.299c0-0.134-0.032-0.25-0.09-0.35
		c-0.062-0.1-0.139-0.171-0.238-0.216c-0.098-0.044-0.254-0.065-0.473-0.065h-0.941v2.258h0.357v-0.942h0.565
		c0.139,0,0.233,0.008,0.282,0.028c0.048,0.018,0.084,0.047,0.111,0.088c0.023,0.043,0.039,0.113,0.045,0.218l0.02,0.274
		c0.012,0.129,0.027,0.239,0.054,0.334h0.4l-0.039-0.062C97.482,34.168,97.453,34.068,97.453,33.948z M96.992,32.986
		c-0.061,0.037-0.174,0.056-0.342,0.056h-0.555v-0.667h0.577c0.177,0,0.293,0.025,0.356,0.078c0.061,0.054,0.095,0.138,0.095,0.253
		C97.124,32.837,97.081,32.932,96.992,32.986z"/>
	<path fill="#FFFFFF" d="M11.11,47.045c-0.175,0.207-0.346,0.356-0.516,0.447c-0.403,0.226-0.993,0.154-1.417-0.274
		c-0.265-0.27-0.394-0.577-0.394-0.94v-0.582c0-0.167,0.025-0.311,0.074-0.435c0.083-0.2,0.195-0.386,0.338-0.555
		c0.053-0.062,0.131-0.119,0.243-0.173c0.397-0.201,0.878-0.144,1.239,0.132c0.104,0.08,0.159,0.154,0.164,0.229
		c0.014,0.194,0.081,0.353,0.185,0.456c0.259,0.278,0.734,0.266,0.975-0.013c0.113-0.127,0.17-0.298,0.17-0.505v-0.921
		c0-0.209-0.059-0.379-0.168-0.498c-0.231-0.265-0.681-0.283-0.93-0.066c-0.72-0.363-1.667-0.36-2.397,0.082
		c-0.383,0.229-0.688,0.561-0.907,0.985c-0.212,0.41-0.319,0.824-0.319,1.231v0.677c0,0.285,0.042,0.552,0.127,0.797
		c0.085,0.245,0.233,0.497,0.454,0.776c0.213,0.263,0.385,0.44,0.542,0.562c0.164,0.125,0.366,0.232,0.598,0.318
		c0.301,0.114,0.606,0.172,0.908,0.172c0.348,0,0.694-0.078,1.024-0.23c0.335-0.149,0.638-0.376,0.893-0.664
		c0.141-0.152,0.303-0.359,0.303-0.614c0-0.179-0.067-0.344-0.197-0.474C11.833,46.711,11.354,46.743,11.11,47.045z"/>
	<path fill="#FFFFFF" d="M21.555,46.502c-0.113,0.128-0.171,0.297-0.171,0.501v0.481h-1.555v-0.903h0.197
		c0.025,0.2,0.11,0.324,0.167,0.378c0.249,0.28,0.739,0.274,0.972,0.019c0.087-0.088,0.19-0.25,0.19-0.52v-1.083
		c0-0.026-0.001-0.051-0.003-0.076c0.01,0.014,0.021,0.027,0.033,0.04c0.253,0.278,0.723,0.282,0.982-0.002
		c0.116-0.129,0.174-0.299,0.174-0.505v-1.641h-3.992c-0.202,0-0.369,0.055-0.515,0.182c-0.133,0.126-0.206,0.298-0.206,0.482
		c0,0.188,0.075,0.361,0.232,0.506c0.082,0.067,0.222,0.147,0.436,0.159v2.965c-0.177,0.01-0.328,0.066-0.462,0.183
		c-0.048,0.046-0.079,0.103-0.111,0.159c-0.036-0.063-0.074-0.125-0.13-0.174c-0.084-0.074-0.233-0.161-0.465-0.168
		c-0.329-0.554-0.552-0.893-0.711-1.085c-0.032-0.038-0.065-0.076-0.099-0.114c0.146-0.099,0.268-0.206,0.368-0.324
		c0.252-0.304,0.379-0.638,0.379-0.991c0-0.472-0.197-0.894-0.585-1.252c-0.375-0.35-0.841-0.527-1.387-0.527h-2.009
		c-0.203,0-0.37,0.055-0.511,0.177c-0.137,0.126-0.212,0.3-0.212,0.487s0.075,0.361,0.233,0.506
		c0.081,0.067,0.221,0.147,0.436,0.159v2.965c-0.178,0.01-0.328,0.065-0.457,0.178c-0.137,0.126-0.212,0.3-0.212,0.487
		c0,0.186,0.075,0.357,0.208,0.481c0.09,0.084,0.251,0.185,0.515,0.185h1.392c0.209,0,0.382-0.061,0.52-0.188
		c0.133-0.126,0.206-0.296,0.206-0.479c0-0.188-0.075-0.361-0.226-0.501c-0.128-0.109-0.296-0.165-0.5-0.165h-0.113v-0.73h0.438
		c0.191,0.104,0.367,0.245,0.525,0.419c0.196,0.217,0.495,0.684,0.89,1.388l0.143,0.256h0.736c0.209,0,0.381-0.061,0.507-0.178
		c0.052-0.048,0.086-0.107,0.12-0.167c0.032,0.057,0.064,0.114,0.113,0.16c0.09,0.084,0.251,0.185,0.513,0.185h4.166v-1.813
		c0-0.205-0.058-0.374-0.173-0.504C22.29,46.218,21.812,46.214,21.555,46.502z M15.874,45.091c-0.032,0.041-0.115,0.125-0.316,0.216
		c-0.172,0.075-0.364,0.112-0.588,0.112h-0.405v-0.897h0.723c0.194,0,0.346,0.056,0.479,0.174c0.077,0.068,0.167,0.169,0.167,0.26
		C15.933,44.991,15.912,45.039,15.874,45.091z M19.828,44.521h1.381v0.311c0,0.028,0.001,0.055,0.003,0.082
		c-0.017-0.023-0.036-0.047-0.056-0.069c-0.265-0.258-0.706-0.249-0.961,0.023c-0.093,0.103-0.149,0.23-0.169,0.382h-0.198V44.521z"
		/>
	<path fill="#FFFFFF" d="M27.92,47.488l-1.624-4.297h-2.018c-0.198,0-0.364,0.055-0.499,0.168c-0.144,0.125-0.223,0.302-0.223,0.498
		c0,0.195,0.079,0.371,0.231,0.503c0.128,0.107,0.293,0.161,0.491,0.161h0.263l-1.099,2.967c-0.157,0.016-0.293,0.069-0.413,0.17
		c-0.14,0.126-0.217,0.301-0.217,0.492c0,0.188,0.075,0.359,0.219,0.493c0.129,0.114,0.298,0.173,0.503,0.173h1.241
		c0.209,0,0.381-0.061,0.507-0.178c0.139-0.127,0.215-0.3,0.215-0.488c0-0.196-0.08-0.374-0.224-0.497
		c-0.111-0.097-0.252-0.152-0.418-0.166l0.08-0.216h1.489l0.081,0.217c-0.164,0.014-0.302,0.068-0.412,0.163
		c-0.146,0.125-0.226,0.303-0.226,0.499c0,0.192,0.078,0.367,0.209,0.483c0.129,0.121,0.303,0.183,0.517,0.183h1.237
		c0.208,0,0.378-0.06,0.507-0.178c0.138-0.126,0.213-0.299,0.213-0.488c0-0.193-0.078-0.369-0.226-0.5
		C28.217,47.558,28.081,47.503,27.92,47.488z M25.429,45.938l0.24-0.653l0.248,0.653H25.429z"/>
	<path fill="#FFFFFF" d="M28.575,45.172c0,0.21,0.06,0.383,0.176,0.509c0.26,0.288,0.749,0.275,0.99-0.009
		c0.11-0.128,0.167-0.297,0.167-0.5v-0.65h0.361v2.963h-0.362c-0.201,0-0.367,0.056-0.505,0.174
		c-0.14,0.126-0.217,0.301-0.217,0.492c0,0.188,0.077,0.362,0.208,0.481c0.13,0.122,0.303,0.185,0.513,0.185h2.06
		c0.207,0,0.378-0.061,0.51-0.183c0.136-0.126,0.211-0.298,0.211-0.483c0-0.188-0.075-0.361-0.23-0.505
		c-0.128-0.107-0.293-0.161-0.491-0.161h-0.361v-2.963h0.359v0.65c0,0.202,0.055,0.369,0.166,0.5
		c0.253,0.294,0.752,0.293,1.001-0.003c0.109-0.129,0.165-0.296,0.165-0.497v-1.98h-4.721V45.172z M31.966,47.816
		C31.966,47.816,31.966,47.816,31.966,47.816l0,0.168c0,0,0,0,0,0V47.816z"/>
	<path fill="#FFFFFF" d="M37.513,44.521c0.245,0,0.401-0.087,0.51-0.179c0.136-0.126,0.211-0.299,0.211-0.487
		s-0.075-0.361-0.226-0.501c-0.126-0.108-0.293-0.163-0.495-0.163h-2.61c-0.202,0-0.369,0.055-0.505,0.172
		c-0.14,0.126-0.217,0.301-0.217,0.492s0.077,0.366,0.233,0.506c0.128,0.106,0.292,0.16,0.489,0.16h0.639v2.963h-0.639
		c-0.201,0-0.367,0.056-0.505,0.174c-0.14,0.126-0.217,0.301-0.217,0.492c0,0.188,0.077,0.362,0.208,0.481
		c0.13,0.122,0.303,0.185,0.513,0.185h2.61c0.262,0,0.423-0.101,0.51-0.183c0.136-0.126,0.211-0.298,0.211-0.483
		c0-0.188-0.075-0.361-0.226-0.501c-0.128-0.109-0.294-0.165-0.495-0.165h-0.639v-2.963H37.513z M37.513,47.816
		C37.514,47.816,37.514,47.816,37.513,47.816l0,0.168c0,0,0,0,0,0V47.816z"/>
	<path fill="#FFFFFF" d="M47.873,46.511c-0.108,0.128-0.163,0.294-0.163,0.492v0.481h-1.555v-0.903h0.197
		c0.02,0.161,0.08,0.293,0.168,0.381c0.255,0.282,0.771,0.248,0.956,0.029c0.136-0.128,0.205-0.308,0.205-0.533v-1.083
		c0-0.026-0.001-0.052-0.003-0.076c0.01,0.013,0.021,0.025,0.031,0.038c0.255,0.284,0.744,0.275,0.988-0.004
		c0.113-0.128,0.171-0.297,0.171-0.501v-1.641h-3.992c-0.204,0-0.372,0.056-0.507,0.174c-0.049,0.045-0.081,0.103-0.114,0.159
		c-0.002-0.003-0.003-0.008-0.005-0.011l-0.147-0.201l-0.149-0.065c-0.116-0.051-0.234-0.058-0.335-0.058h-1.233
		c-0.107,0-0.223,0.007-0.354,0.066c-0.101,0.049-0.187,0.125-0.262,0.234l-0.11,0.215v0.15c0,0.13,0.038,0.256,0.094,0.34
		l0.138,0.186l0.131,0.066c0.092,0.047,0.185,0.064,0.268,0.071l-0.811,2.11l-0.821-2.11c0.081-0.006,0.17-0.021,0.233-0.058
		c0.109-0.047,0.203-0.125,0.284-0.242l0.11-0.213v-0.15c0-0.136-0.039-0.265-0.09-0.336l-0.142-0.199l-0.144-0.067
		c-0.118-0.056-0.241-0.063-0.346-0.063h-1.237c-0.1,0-0.218,0.007-0.344,0.063c-0.117,0.055-0.214,0.145-0.268,0.237l-0.109,0.215
		v0.15c0,0.13,0.038,0.256,0.088,0.329l0.137,0.191l0.135,0.069c0.095,0.05,0.191,0.067,0.275,0.073l1.674,4.298h1.148l1.648-4.298
		c0.084-0.006,0.174-0.021,0.238-0.058c0.113-0.049,0.211-0.133,0.284-0.242l0.02-0.038c0.036,0.062,0.073,0.125,0.132,0.179
		c0.082,0.068,0.222,0.149,0.438,0.161v2.965c-0.179,0.01-0.329,0.066-0.454,0.175c-0.138,0.126-0.214,0.3-0.214,0.49
		c0,0.188,0.076,0.36,0.206,0.479c0.089,0.086,0.251,0.188,0.516,0.188h4.166v-1.813c0-0.203-0.057-0.37-0.175-0.507
		C48.613,46.218,48.15,46.205,47.873,46.511z M46.154,44.521h1.381v0.311c0,0.026,0.001,0.053,0.003,0.078
		c-0.015-0.02-0.031-0.039-0.049-0.058c-0.256-0.26-0.68-0.279-0.977,0.024c-0.087,0.102-0.141,0.227-0.16,0.373h-0.198V44.521z"/>
	<path fill="#FFFFFF" d="M59.51,47.488l-1.623-4.297h-2.019c-0.202,0-0.369,0.056-0.496,0.165c-0.146,0.125-0.226,0.303-0.226,0.501
		c0,0.197,0.08,0.374,0.23,0.503c0.128,0.107,0.294,0.161,0.491,0.161h0.263l-1.099,2.967c-0.2,0.02-0.331,0.1-0.408,0.168
		c-0.142,0.125-0.22,0.301-0.22,0.494c0,0.189,0.076,0.362,0.208,0.483c0.129,0.121,0.302,0.183,0.513,0.183h1.242
		c0.204,0,0.373-0.059,0.513-0.183c0.134-0.127,0.208-0.298,0.208-0.483c0-0.19-0.076-0.364-0.226-0.5
		c-0.078-0.067-0.212-0.146-0.416-0.163l0.08-0.216h1.488l0.081,0.217c-0.165,0.014-0.304,0.068-0.414,0.163
		c-0.146,0.125-0.226,0.303-0.226,0.499c0,0.192,0.078,0.367,0.215,0.488c0.129,0.118,0.301,0.178,0.511,0.178h1.238
		c0.204,0,0.373-0.059,0.507-0.178c0.138-0.126,0.214-0.299,0.214-0.488c0-0.197-0.08-0.374-0.23-0.504
		C59.802,47.556,59.667,47.503,59.51,47.488z M57.021,45.938l0.24-0.652l0.248,0.652H57.021z"/>
	<path fill="#FFFFFF" d="M64.457,45.768l-1.6-0.004c-0.197,0-0.362,0.054-0.523,0.191c-0.127,0.127-0.197,0.297-0.197,0.477
		c0,0.198,0.08,0.376,0.202,0.479c0.13,0.126,0.304,0.189,0.519,0.189h0.644v0.396c-0.079,0.029-0.151,0.053-0.217,0.069
		c-0.136,0.032-0.284,0.049-0.442,0.049c-0.463,0-0.806-0.113-1.051-0.351c-0.236-0.224-0.352-0.535-0.352-0.949V45.71
		c0-0.22,0.049-0.415,0.147-0.585c0.162-0.285,0.333-0.482,0.492-0.569c0.36-0.195,0.868-0.183,1.26,0.018
		c0.114,0.06,0.167,0.114,0.168,0.128c0.011,0.255,0.112,0.408,0.196,0.492c0.25,0.25,0.666,0.271,0.961-0.026
		c0.078-0.089,0.172-0.248,0.172-0.503v-0.751c0-0.248-0.091-0.406-0.188-0.519c-0.222-0.229-0.577-0.272-0.864-0.084
		c-0.716-0.316-1.679-0.315-2.413,0.113c-0.396,0.229-0.711,0.562-0.934,0.988c-0.219,0.415-0.329,0.851-0.329,1.295v0.607
		c0,0.428,0.066,0.797,0.2,1.102c0.131,0.289,0.312,0.553,0.538,0.78c0.235,0.239,0.524,0.427,0.862,0.561
		c0.328,0.126,0.705,0.19,1.12,0.19c0.298,0,0.598-0.043,0.888-0.126c0.293-0.082,0.584-0.204,0.866-0.361l0.256-0.144v-1.308
		l0.129-0.064l0.091-0.133c0.077-0.112,0.118-0.243,0.118-0.38c0-0.19-0.076-0.364-0.231-0.506
		C64.817,45.82,64.653,45.768,64.457,45.768z"/>
	<path fill="#FFFFFF" d="M68.937,46.508c-0.109,0.128-0.165,0.294-0.165,0.495v0.481h-1.555v-0.903h0.197
		c0.021,0.162,0.079,0.293,0.165,0.378c0.249,0.279,0.74,0.271,0.97,0.021c0.089-0.089,0.194-0.251,0.194-0.522v-1.083
		c0-0.025-0.001-0.05-0.003-0.074c0.01,0.013,0.021,0.025,0.031,0.038c0.257,0.283,0.737,0.278,0.986-0.006
		c0.113-0.127,0.17-0.295,0.17-0.501v-1.641h-3.99c-0.203,0-0.371,0.055-0.515,0.179c-0.134,0.126-0.208,0.299-0.208,0.485
		s0.074,0.359,0.231,0.506c0.116,0.097,0.263,0.149,0.437,0.159v2.965c-0.178,0.01-0.328,0.066-0.46,0.18
		c-0.134,0.126-0.208,0.299-0.208,0.485c0,0.184,0.074,0.355,0.208,0.481c0.13,0.122,0.303,0.185,0.515,0.185h4.166v-1.813
		c0-0.208-0.06-0.378-0.172-0.501C69.688,46.224,69.226,46.199,68.937,46.508z M67.217,44.521h1.381v0.311
		c0,0.027,0.001,0.055,0.003,0.081c-0.016-0.021-0.033-0.043-0.052-0.063c-0.259-0.258-0.687-0.272-0.975,0.027
		c-0.087,0.101-0.141,0.227-0.159,0.373h-0.198V44.521z"/>
	<path fill="#FFFFFF" d="M74.971,43.191h-1.226c-0.211,0-0.375,0.055-0.516,0.179c-0.134,0.127-0.208,0.299-0.208,0.485
		c0,0.192,0.078,0.368,0.239,0.511c0.128,0.103,0.291,0.155,0.484,0.155h0.112v1.488l-1.668-2.818h-0.376l-0.499-0.843v0.843h-0.279
		c-0.2,0-0.365,0.054-0.515,0.179c-0.134,0.127-0.208,0.299-0.208,0.485s0.074,0.358,0.237,0.511
		c0.115,0.093,0.261,0.145,0.431,0.154v2.99c-0.109,0.027-0.204,0.077-0.286,0.149c-0.138,0.126-0.214,0.3-0.214,0.49
		c0,0.188,0.076,0.36,0.202,0.476c0.13,0.127,0.306,0.19,0.522,0.19h1.223c0.209,0,0.381-0.061,0.517-0.185
		c0.134-0.127,0.208-0.298,0.208-0.481c0-0.193-0.078-0.369-0.23-0.505c-0.128-0.107-0.295-0.161-0.494-0.161h-0.113v-1.481
		l1.664,2.813h0.378l0.501,0.848v-0.848h0.33v-4.32c0.108-0.028,0.205-0.077,0.29-0.15c0.138-0.126,0.214-0.3,0.214-0.49
		s-0.076-0.364-0.22-0.496C75.345,43.248,75.177,43.191,74.971,43.191z"/>
	<path fill="#FFFFFF" d="M79.559,47.047c-0.172,0.204-0.344,0.354-0.515,0.445c-0.406,0.226-0.994,0.154-1.418-0.274
		c-0.265-0.27-0.394-0.577-0.394-0.94v-0.582c0-0.168,0.024-0.312,0.074-0.437c0.081-0.198,0.192-0.383,0.335-0.552
		c0.053-0.062,0.132-0.119,0.244-0.173c0.408-0.203,0.88-0.146,1.242,0.133c0.156,0.117,0.161,0.197,0.164,0.23
		c0.016,0.191,0.079,0.346,0.196,0.467c0.265,0.264,0.726,0.239,0.951-0.015c0.121-0.129,0.183-0.303,0.183-0.517v-0.921
		c0-0.215-0.063-0.39-0.173-0.501c-0.229-0.26-0.655-0.291-0.924-0.062c-0.719-0.364-1.661-0.36-2.398,0.081
		c-0.378,0.226-0.684,0.556-0.909,0.987c-0.209,0.409-0.315,0.823-0.315,1.229v0.677c0,0.283,0.042,0.55,0.126,0.795
		c0.086,0.249,0.234,0.502,0.454,0.776c0.208,0.258,0.384,0.442,0.54,0.562c0.163,0.125,0.365,0.233,0.599,0.319
		c0.302,0.114,0.607,0.172,0.908,0.172c0.346,0,0.691-0.078,1.025-0.23c0.335-0.15,0.638-0.377,0.893-0.665
		c0.149-0.163,0.302-0.362,0.302-0.613c0-0.184-0.072-0.353-0.187-0.459C80.304,46.71,79.79,46.746,79.559,47.047z"/>
	<path fill="#FFFFFF" d="M85.402,43.191h-0.909c-0.211,0-0.382,0.059-0.504,0.17c-0.143,0.126-0.222,0.303-0.222,0.496
		c0,0.192,0.079,0.368,0.222,0.494c0.004,0.003,0.008,0.006,0.012,0.01l-0.402,0.62l-0.414-0.624
		c0.003-0.002,0.005-0.004,0.008-0.006c0.143-0.126,0.221-0.301,0.221-0.494c0-0.194-0.078-0.37-0.226-0.5
		c-0.128-0.11-0.296-0.166-0.498-0.166h-0.912c-0.202,0-0.37,0.056-0.503,0.17c-0.141,0.124-0.218,0.3-0.218,0.496
		c0,0.194,0.077,0.37,0.229,0.503c0.112,0.094,0.254,0.147,0.421,0.159l1.228,1.859v1.105H82.57c-0.255,0-0.414,0.093-0.515,0.182
		c-0.133,0.125-0.206,0.297-0.206,0.484c0,0.182,0.072,0.352,0.219,0.493c0.129,0.114,0.298,0.173,0.502,0.173h2.062
		c0.204,0,0.374-0.059,0.503-0.173c0.141-0.126,0.219-0.301,0.219-0.493c0-0.197-0.08-0.374-0.23-0.504
		c-0.129-0.107-0.294-0.162-0.491-0.162H84.27v-1.107l1.209-1.858c0.174-0.013,0.316-0.068,0.414-0.158
		c0.148-0.124,0.23-0.303,0.23-0.503c0-0.202-0.082-0.381-0.208-0.485C85.787,43.252,85.615,43.191,85.402,43.191z M84.632,47.816
		c0.001,0,0.002,0,0.002,0l-0.001,0.168c0,0,0,0-0.001,0V47.816z"/>
</g>
</svg>
